# xmcd
# 
# Track frame offsets:
#     182
#     19640
#     33997
#     48555
#     60967
#     73017
#     89880
#     103905
#     116150
#     130942
#     141310
#     155552
#     166355
#     185662
# 
# Disc length: 2718
# 
# Revision: 5
# Processed by: cddbd v1.5.2PL0 Copyright (c) Steve Scherf et al.
# Submitted via: BonkEnc v1.0.6
# 
DISCID=ce0a9c0e
DTITLE=Amado Batista - Acervo Especial - Amado Batista
DYEAR=1994
DGENRE=MPB
TTITLE0=Seresteiro das noites
TTITLE1=Sua partida
TTITLE2=Hospício
TTITLE3=Morro de ciúmes dela
TTITLE4=Anjo bom
TTITLE5=Princesa
TTITLE6=Filho
TTITLE7=Eu sou seu fã
TTITLE8=Monotonia
TTITLE9=Outra canção de amor
TTITLE10=Chance
TTITLE11=Meu ex-amor
TTITLE12=Seguindo a multidão
TTITLE13=Reclamando sua ausência
EXTD=
EXTT0=
EXTT1=
EXTT2=
EXTT3=
EXTT4=
EXTT5=
EXTT6=
EXTT7=
EXTT8=
EXTT9=
EXTT10=
EXTT11=
EXTT12=
EXTT13=
PLAYORDER=
